<?xml version="1.0" standalone="no"?>
<!DOCTYPE svg PUBLIC "-//W3C//DTD SVG 20010904//EN"
 "http://www.w3.org/TR/2001/REC-SVG-20010904/DTD/svg10.dtd">
<svg version="1.0" xmlns="http://www.w3.org/2000/svg"
 width="1024.000000pt" height="1024.000000pt" viewBox="0 0 1024.000000 1024.000000"
 preserveAspectRatio="xMidYMid meet">
<metadata>
Created by potrace 1.14, written by Peter Selinger 2001-2017
</metadata>
<g transform="translate(0.000000,1024.000000) scale(0.100000,-0.100000)"
fill="#000000" stroke="none">
<path d="M5060 9520 c0 -6 -4 -8 -10 -5 -5 3 -10 0 -10 -7 0 -9 -3 -9 -10 2
-8 12 -10 12 -10 1 0 -8 -7 -11 -19 -8 -15 3 -18 1 -14 -11 4 -10 2 -13 -6 -8
-6 4 -19 2 -27 -5 -9 -7 -24 -13 -35 -14 -10 -1 -28 -10 -39 -20 -18 -16 -23
-17 -30 -5 -8 12 -10 9 -10 -10 0 -20 -2 -22 -10 -10 -8 13 -10 13 -10 -1 0
-10 -7 -16 -17 -15 -10 0 -17 -5 -15 -12 1 -7 -5 -12 -15 -10 -10 2 -17 -2
-16 -8 1 -7 -5 -11 -15 -10 -9 0 -16 -4 -15 -11 2 -8 -4 -10 -14 -6 -11 4 -14
3 -9 -5 4 -7 4 -12 -1 -12 -4 0 -13 -12 -20 -26 -10 -22 -9 -26 10 -34 l22 -9
-23 0 c-19 -1 -21 -3 -10 -15 7 -8 18 -11 23 -8 6 3 4 -1 -3 -10 -9 -12 -10
-18 -2 -23 6 -4 9 -13 6 -20 -2 -7 4 -23 14 -35 11 -13 22 -38 26 -56 3 -19
11 -34 16 -34 6 0 8 -7 4 -15 -3 -9 0 -15 9 -15 7 0 17 -4 20 -10 3 -5 0 -7
-8 -4 -18 6 -16 -28 2 -50 10 -12 10 -16 2 -16 -7 0 -9 -5 -6 -10 4 -6 10 -8
14 -6 4 3 8 -1 8 -9 0 -8 -4 -15 -9 -15 -4 0 -8 -5 -8 -11 0 -6 7 -8 16 -5 14
5 15 4 4 -9 -10 -12 -9 -15 6 -16 16 0 16 -2 -3 -9 -13 -5 -23 -12 -23 -15 0
-4 4 -4 9 -1 5 3 12 -1 15 -10 8 -22 8 -26 -3 -20 -10 7 -9 -13 2 -30 4 -7 0
-15 -9 -18 -13 -5 -14 -9 -4 -21 10 -12 10 -15 -1 -15 -11 0 -11 -2 1 -10 8
-5 10 -10 3 -10 -12 0 -12 -17 0 -37 5 -9 3 -11 -6 -7 -8 3 -18 0 -23 -7 -4
-8 -3 -10 4 -5 16 10 15 -7 0 -23 -10 -11 -10 -12 -1 -7 9 5 11 2 7 -8 -3 -9
-11 -13 -18 -9 -6 3 -6 1 2 -8 6 -7 12 -18 12 -24 0 -5 -5 -3 -10 5 -8 13 -10
12 -10 -2 0 -10 0 -21 1 -25 0 -3 -6 -10 -15 -15 -9 -5 -16 -14 -16 -21 0 -7
4 -6 10 3 5 8 10 11 10 7 0 -4 -7 -19 -16 -32 -10 -15 -12 -25 -5 -25 6 0 11
-5 11 -11 0 -5 -4 -8 -9 -4 -5 3 -12 1 -16 -5 -3 -5 -1 -10 6 -10 10 0 10 -3
1 -12 -15 -15 -16 -31 0 -22 7 5 8 3 4 -5 -5 -7 -10 -10 -14 -7 -7 8 -52 -55
-46 -65 3 -5 -3 -6 -12 -2 -13 5 -16 3 -11 -10 3 -8 -1 -21 -8 -27 -8 -7 -12
-17 -8 -24 5 -8 3 -8 -8 0 -16 14 -34 0 -34 -26 0 -8 -5 -14 -12 -13 -8 2 -9
-6 -3 -28 8 -26 7 -30 -7 -25 -13 5 -14 4 -4 -8 9 -11 9 -16 0 -22 -8 -5 -9
-3 -4 6 6 9 4 11 -4 5 -7 -4 -11 -15 -8 -25 3 -11 -1 -21 -9 -24 -9 -3 -11 1
-8 12 5 14 4 14 -6 -1 -7 -10 -9 -21 -6 -24 3 -3 -2 -12 -10 -20 -8 -8 -12
-18 -9 -23 3 -5 0 -12 -6 -16 -8 -4 -9 -3 -5 4 4 7 3 12 -2 12 -5 0 -12 -14
-16 -31 -3 -17 -10 -28 -16 -24 -5 3 -10 -1 -10 -10 0 -9 -4 -13 -10 -10 -15
10 -12 -2 6 -20 16 -15 16 -16 -2 -13 -13 2 -20 -4 -22 -19 -2 -13 -13 -30
-25 -38 -12 -8 -16 -15 -9 -15 6 0 12 -5 12 -11 0 -5 -3 -8 -7 -6 -5 3 -13 -1
-20 -8 -10 -11 -10 -15 0 -18 7 -3 4 -6 -5 -6 -10 -1 -18 -6 -18 -12 0 -5 6
-7 13 -4 6 4 3 -1 -7 -9 -11 -9 -17 -16 -13 -16 4 0 -2 -9 -14 -21 -11 -11
-18 -27 -15 -35 3 -8 -1 -17 -9 -20 -8 -4 -12 -10 -9 -15 3 -5 -1 -9 -8 -9
-10 0 -9 -3 2 -10 12 -7 10 -11 -10 -19 -14 -5 -18 -10 -10 -10 11 -1 11 -4 2
-13 -7 -7 -12 -20 -12 -30 0 -10 -6 -18 -12 -18 -9 0 -8 -3 2 -10 12 -8 12
-10 -3 -16 -9 -3 -15 -10 -12 -14 2 -4 -5 -16 -18 -26 -16 -14 -18 -14 -9 -2
9 11 10 18 2 23 -8 5 -8 11 1 21 9 11 9 14 -1 14 -10 0 -10 3 -1 14 10 11 8
17 -6 26 -15 10 -15 11 -1 6 12 -3 15 -1 11 10 -3 8 1 14 8 14 11 0 11 3 -1
10 -13 9 -13 10 0 10 13 0 13 1 0 10 -11 7 -11 10 -2 10 7 0 10 5 7 10 -4 6
-12 8 -18 4 -7 -3 -4 1 6 9 15 12 16 19 8 36 -9 16 -8 22 6 30 10 6 13 11 7
11 -6 0 -11 7 -11 15 0 8 4 12 8 10 3 -3 9 4 12 15 3 11 1 18 -4 14 -5 -3 -6
2 -3 10 3 9 11 16 16 16 6 0 4 8 -3 17 -10 11 -10 14 -1 9 8 -5 12 -1 12 11 0
11 6 25 13 32 7 9 8 12 0 7 -7 -4 -9 1 -6 14 3 11 10 17 17 13 6 -4 5 1 -3 10
-7 9 -9 17 -3 17 5 0 13 7 16 16 3 8 2 13 -2 10 -5 -3 -9 1 -9 9 0 8 4 12 9 9
5 -3 7 6 4 20 -3 14 0 29 6 32 7 4 8 2 4 -4 -4 -7 -2 -12 3 -12 14 0 14 6 0
32 -7 13 -7 18 0 14 11 -7 34 28 24 38 -4 3 2 13 13 22 10 8 14 13 9 10 -6 -2
-11 4 -11 14 0 15 3 17 15 7 11 -9 13 -9 8 0 -4 6 -2 15 4 18 5 4 8 13 5 21
-3 9 1 14 12 14 15 0 15 2 2 10 -13 8 -12 10 3 10 10 0 15 5 12 10 -3 6 0 10
7 11 7 0 4 4 -7 9 l-20 9 20 0 c17 1 17 3 5 11 -13 8 -13 10 1 10 19 0 33 26
18 35 -5 4 -7 11 -3 16 3 5 9 7 13 5 3 -3 7 4 7 14 0 10 -3 17 -7 14 -4 -2 -6
7 -5 21 0 14 5 25 10 25 5 0 6 3 3 7 -4 3 -1 13 6 21 6 9 7 13 1 9 -6 -3 -11
0 -11 8 0 8 5 11 10 8 6 -3 8 7 5 25 -2 17 -1 29 3 27 4 -3 9 2 13 10 3 8 0
15 -6 15 -7 0 -6 5 2 15 7 8 8 15 3 15 -11 0 -11 29 1 48 4 7 2 12 -4 12 -6 0
-8 5 -5 10 3 6 0 10 -7 10 -8 0 -20 9 -28 20 -10 14 -16 16 -22 7 -5 -8 -8 -5
-8 8 0 17 -2 17 -10 5 -8 -12 -10 -12 -10 5 0 15 -2 17 -9 6 -7 -11 -9 -11
-14 0 -3 9 -6 7 -6 -5 -1 -20 -1 -20 -16 0 -13 16 -16 17 -26 4 -9 -12 -10
-10 -5 9 4 18 2 21 -7 12 -13 -13 -41 -15 -33 -2 3 4 -11 6 -30 4 -27 -3 -34
-1 -28 9 6 9 3 9 -9 -1 -13 -10 -17 -10 -17 -1 0 8 -9 10 -27 6 -17 -5 -29 -3
-34 6 -7 10 -9 10 -9 -2 0 -12 -2 -12 -9 -2 -9 15 -89 22 -94 9 -1 -5 -16 2
-32 15 -24 18 -27 18 -15 3 13 -17 13 -18 0 -10 -8 4 -21 13 -29 19 -15 11
-102 16 -96 5 2 -3 -11 -5 -29 -5 -19 1 -32 4 -31 7 2 3 -2 6 -10 6 -8 0 -12
-4 -9 -9 8 -12 -4 -10 -30 8 -15 9 -26 11 -30 5 -9 -15 -38 -1 -32 15 3 7 0
16 -6 20 -7 4 -8 3 -4 -4 4 -7 3 -12 -3 -12 -5 0 -13 5 -16 11 -5 7 -14 4 -28
-8 -11 -10 -17 -13 -14 -7 4 7 0 14 -8 17 -9 4 -12 1 -8 -9 4 -10 0 -12 -11
-8 -9 3 -23 1 -30 -5 -11 -9 -15 -9 -18 1 -4 10 -8 10 -19 2 -8 -6 -26 -14
-41 -18 -20 -5 -26 -11 -21 -23 4 -10 2 -14 -4 -10 -5 3 -10 0 -10 -8 0 -8 4
-15 9 -15 4 0 8 -5 8 -11 0 -5 -4 -7 -10 -4 -5 3 -10 -3 -10 -14 0 -11 -4 -22
-9 -25 -10 -7 -9 -25 2 -43 4 -6 2 -15 -4 -19 -8 -5 -9 -3 -4 7 5 8 4 11 0 6
-9 -8 -14 -58 -5 -52 3 2 6 -5 6 -15 0 -10 -3 -17 -7 -14 -4 2 -9 -5 -12 -16
-3 -13 -1 -18 6 -13 9 5 9 3 0 -8 -7 -9 -9 -20 -3 -29 6 -10 4 -23 -6 -39 -9
-13 -11 -20 -5 -17 7 5 9 1 5 -8 -3 -9 -11 -16 -18 -16 -6 0 -4 -5 4 -10 8 -5
11 -10 5 -10 -5 0 -3 -5 5 -10 12 -8 12 -10 -5 -10 -17 0 -17 -2 -5 -10 12 -7
12 -10 1 -10 -7 0 -11 -6 -7 -15 3 -8 1 -15 -5 -15 -6 0 -7 -5 -4 -10 4 -6 1
-18 -7 -27 -9 -12 -9 -15 0 -9 15 9 16 -6 0 -22 -9 -9 -9 -12 3 -12 9 0 10 -3
3 -8 -17 -11 -28 -65 -12 -57 7 4 5 0 -5 -8 -14 -11 -15 -16 -5 -20 10 -4 10
-6 -1 -6 -11 -1 -11 -4 0 -18 12 -14 12 -16 0 -8 -11 6 -13 4 -8 -8 3 -10 2
-17 -4 -17 -6 0 -6 -7 1 -20 8 -15 8 -20 -1 -18 -6 2 -13 -5 -14 -14 -2 -10 2
-18 8 -18 7 0 4 -7 -6 -14 -12 -9 -14 -16 -8 -21 15 -9 14 -21 -5 -39 -12 -12
-12 -16 -2 -16 10 0 10 -2 1 -8 -7 -4 -13 -23 -14 -42 -2 -19 -7 -41 -12 -47
-6 -9 -5 -13 4 -13 10 -1 9 -5 -4 -14 -12 -10 -15 -16 -7 -21 8 -5 6 -13 -6
-26 -13 -15 -14 -19 -3 -20 8 0 6 -4 -6 -9 -11 -5 -15 -9 -9 -9 6 -1 11 -8 11
-16 0 -9 -4 -11 -11 -6 -7 6 -11 1 -12 -15 -1 -13 2 -22 6 -19 5 3 3 -6 -3
-19 -7 -13 -14 -23 -18 -21 -3 2 -5 -14 -4 -35 1 -21 -2 -37 -6 -35 -4 3 -10
-2 -13 -11 -3 -8 -2 -12 4 -9 6 3 10 2 10 -4 0 -5 -5 -13 -11 -17 -8 -4 -7 -9
2 -15 11 -7 10 -9 -5 -9 -15 0 -16 -3 -6 -15 8 -9 9 -15 2 -15 -6 0 -9 -9 -7
-20 2 -11 0 -18 -6 -15 -5 4 -9 0 -9 -9 0 -8 6 -17 13 -19 7 -3 5 -6 -6 -6
-15 -1 -16 -4 -6 -22 6 -12 7 -19 1 -15 -5 3 -12 -1 -16 -9 -3 -8 0 -15 7 -15
7 0 4 -5 -6 -11 -14 -8 -15 -14 -6 -31 9 -16 8 -19 -2 -13 -9 6 -11 3 -6 -8 3
-10 2 -17 -3 -17 -6 0 -10 -12 -10 -27 0 -22 -2 -25 -10 -13 -6 9 -10 10 -10
3 0 -6 5 -15 10 -18 8 -5 7 -11 0 -20 -7 -8 -8 -20 -4 -26 4 -7 3 -9 -2 -6 -6
3 -15 -3 -22 -13 -10 -16 -9 -18 6 -14 15 5 15 4 1 -8 -9 -7 -14 -18 -12 -25
2 -6 0 -14 -6 -17 -5 -3 -7 -16 -3 -28 3 -14 1 -19 -6 -14 -7 4 -9 -2 -6 -19
3 -15 0 -25 -7 -25 -6 0 -9 -9 -6 -19 3 -14 1 -18 -9 -14 -9 3 -12 -2 -9 -17
4 -18 2 -20 -11 -9 -12 10 -13 9 -8 -6 5 -13 4 -16 -5 -10 -10 6 -11 3 -1 -15
9 -17 9 -21 0 -15 -7 4 -13 -1 -17 -14 -3 -11 -10 -18 -16 -14 -5 3 -7 1 -4
-4 4 -6 0 -16 -8 -23 -8 -7 -15 -19 -15 -27 0 -9 -5 -11 -12 -7 -9 5 -9 2 1
-9 12 -15 11 -17 -10 -17 -19 0 -21 -2 -9 -10 12 -8 12 -10 -3 -16 -9 -3 -14
-10 -11 -15 3 -5 -2 -9 -12 -9 -14 0 -15 -2 -3 -17 7 -10 9 -15 5 -11 -5 4
-15 0 -23 -10 -8 -9 -11 -11 -7 -3 5 10 3 12 -5 7 -7 -5 -10 -15 -7 -23 3 -8
2 -12 -3 -9 -4 3 -17 -2 -27 -10 -10 -9 -12 -13 -4 -9 8 4 5 -3 -8 -14 -13
-11 -21 -25 -17 -31 4 -6 1 -9 -7 -8 -7 2 -12 -2 -11 -9 2 -7 -3 -10 -11 -7
-7 3 -19 -3 -27 -12 -9 -12 -10 -15 -1 -10 6 4 12 2 12 -3 0 -6 -10 -11 -22
-11 -12 0 -19 -3 -15 -6 7 -7 -34 -49 -48 -49 -5 0 -9 -8 -9 -18 1 -9 -2 -14
-7 -11 -5 3 -9 0 -9 -6 0 -6 -5 -8 -12 -4 -8 5 -9 2 -5 -9 4 -11 1 -17 -9 -17
-8 0 -13 -3 -11 -7 5 -10 -29 -43 -36 -36 -3 2 -8 -5 -12 -16 -3 -12 -11 -19
-16 -16 -5 4 -9 -3 -9 -15 0 -12 -4 -19 -9 -16 -5 3 -15 -2 -22 -11 -10 -11
-10 -14 -2 -9 9 5 11 2 7 -8 -3 -9 -10 -13 -15 -10 -5 3 -9 0 -9 -6 0 -6 -5
-8 -12 -4 -9 6 -9 3 0 -9 12 -14 11 -16 -7 -12 -19 3 -20 1 -10 -17 7 -13 7
-18 0 -14 -5 4 -15 -3 -21 -14 -6 -11 -18 -20 -28 -20 -13 0 -14 -2 -4 -9 11
-7 11 -9 -2 -14 -10 -4 -13 -12 -9 -23 5 -14 3 -16 -11 -11 -13 5 -17 3 -13
-7 3 -8 -1 -17 -9 -20 -8 -3 -13 -11 -12 -18 2 -7 -3 -12 -9 -11 -7 2 -13 -4
-13 -13 0 -22 -35 -65 -46 -56 -5 4 -2 -1 5 -11 8 -9 11 -20 7 -24 -3 -3 -6 0
-6 7 0 13 -14 5 -16 -8 -3 -21 -18 -41 -27 -35 -6 3 -7 1 -3 -5 4 -7 3 -12 -3
-12 -6 0 -8 -6 -5 -13 3 -8 -5 -19 -18 -26 -15 -7 -16 -10 -4 -6 15 4 17 3 8
-8 -7 -8 -9 -17 -5 -21 4 -4 0 -4 -9 -1 -13 5 -15 2 -12 -12 3 -11 -5 -30 -21
-47 -14 -16 -24 -34 -21 -42 3 -9 0 -11 -11 -7 -12 5 -14 3 -8 -7 5 -8 1 -18
-10 -27 -11 -7 -13 -13 -7 -13 7 0 12 -5 12 -11 0 -5 -4 -8 -9 -5 -8 5 -15 -5
-21 -29 -1 -5 -7 -16 -13 -24 -9 -12 -9 -13 0 -7 9 5 11 2 7 -8 -3 -9 -11 -13
-17 -9 -6 3 -7 1 -3 -5 8 -14 -18 -55 -28 -45 -4 4 -4 0 0 -10 3 -9 11 -14 18
-10 6 3 -1 -7 -15 -23 -15 -17 -25 -40 -24 -56 0 -15 -5 -30 -13 -33 -12 -4
-12 -8 -1 -22 8 -9 9 -14 4 -11 -6 4 -15 -5 -22 -18 -6 -13 -8 -22 -3 -19 4 3
10 -2 14 -10 3 -8 0 -14 -7 -12 -7 1 -11 -4 -10 -10 2 -7 -3 -13 -10 -13 -8 0
-7 -4 3 -10 12 -8 12 -10 1 -10 -8 0 -11 -3 -8 -7 4 -3 2 -13 -5 -20 -9 -11
-9 -16 1 -22 9 -6 7 -17 -9 -46 -19 -34 -20 -37 -3 -31 16 5 16 4 -1 -9 -11
-8 -16 -15 -12 -15 5 0 4 -6 -3 -13 -8 -10 -7 -17 1 -25 9 -9 7 -12 -8 -13
-18 0 -18 -1 1 -9 11 -5 15 -9 8 -9 -11 -1 -9 -43 3 -63 3 -4 -3 -8 -13 -8
-11 0 -14 -3 -7 -8 6 -4 13 -17 16 -29 5 -17 2 -23 -10 -23 -13 0 -12 -3 4
-15 15 -11 16 -15 4 -15 -10 -1 -9 -4 5 -10 19 -8 19 -9 1 -9 -15 -1 -16 -4
-6 -16 7 -8 8 -15 3 -15 -14 0 -8 -51 8 -61 12 -7 12 -9 -1 -9 -13 0 -13 -1 0
-10 8 -5 10 -10 4 -10 -6 0 -11 -7 -11 -15 0 -8 7 -15 16 -15 11 0 11 -3 -5
-16 -13 -10 -14 -14 -4 -11 13 4 15 -2 12 -30 -3 -22 0 -38 9 -43 10 -7 10
-11 0 -24 -11 -13 -11 -16 3 -16 9 0 16 -5 16 -11 0 -5 -4 -8 -9 -5 -15 10 1
-49 18 -63 15 -13 15 -13 -1 -8 -22 8 -23 1 -4 -18 7 -8 12 -27 10 -44 -2 -17
1 -31 6 -31 14 0 12 -27 -2 -33 -8 -3 -6 -6 5 -6 9 -1 17 4 17 11 0 6 3 8 6 5
4 -4 1 -14 -7 -23 -11 -14 -11 -18 -1 -22 10 -3 10 -7 1 -18 -9 -11 -8 -14 7
-14 16 0 17 -2 4 -10 -13 -8 -8 -14 11 -12 3 1 6 -5 6 -13 0 -8 -4 -12 -9 -9
-4 3 -8 0 -8 -5 0 -6 5 -11 11 -11 5 0 8 -4 4 -9 -3 -5 -1 -13 5 -16 8 -5 7
-11 -1 -21 -10 -12 -9 -13 5 -8 9 3 16 1 16 -5 0 -6 -6 -11 -12 -11 -10 0 -10
-2 0 -9 7 -4 15 -17 17 -27 2 -10 4 -19 5 -19 1 0 3 -9 5 -19 2 -10 9 -22 15
-26 9 -6 9 -9 -1 -13 -12 -4 -12 -7 0 -18 12 -12 13 -12 6 0 -5 9 -4 12 3 7 6
-3 9 -15 7 -26 -2 -11 1 -20 6 -20 6 0 8 -4 4 -9 -3 -5 2 -16 10 -24 11 -12
12 -17 2 -20 -6 -3 -1 -6 13 -7 23 -1 23 -2 5 -10 -11 -5 -15 -9 -8 -9 6 -1 9
-10 5 -23 -4 -18 -2 -20 19 -15 23 6 23 5 5 -8 -11 -8 -14 -15 -7 -15 7 0 9
-4 6 -10 -3 -5 -1 -10 5 -10 7 0 9 -7 6 -15 -3 -9 1 -18 9 -22 13 -4 13 -8 3
-21 -10 -12 -10 -14 0 -8 8 5 12 0 12 -14 0 -13 4 -19 11 -14 7 4 7 -2 -1 -17
-7 -13 -9 -21 -5 -17 13 12 34 -15 23 -29 -7 -9 -6 -15 6 -19 9 -3 13 -10 10
-15 -3 -5 -1 -9 4 -9 6 0 13 -7 16 -16 3 -8 2 -12 -4 -9 -6 3 -7 -1 -4 -9 3
-9 10 -13 15 -10 5 3 7 -5 5 -18 -2 -15 5 -31 23 -46 14 -13 20 -21 14 -17 -7
3 -13 1 -13 -4 0 -6 4 -11 10 -11 5 0 9 -3 9 -7 -3 -20 2 -34 10 -28 6 3 8 -4
6 -16 -2 -12 -2 -19 2 -15 10 10 32 -14 26 -30 -3 -8 1 -14 8 -14 11 0 11 -3
-1 -10 -12 -8 -12 -10 5 -11 l20 0 -20 -9 c-16 -7 -17 -9 -3 -9 9 -1 20 -6 24
-13 4 -7 3 -8 -4 -4 -7 4 -12 2 -12 -3 0 -6 5 -11 11 -11 5 0 7 -5 3 -12 -5
-7 -2 -9 7 -6 10 4 15 -1 17 -15 2 -32 23 -67 36 -60 6 4 4 -2 -4 -12 -9 -11
-10 -16 -2 -11 6 4 13 2 13 -3 1 -6 2 -17 3 -23 1 -7 7 -12 13 -11 6 1 9 -6 6
-17 -3 -11 0 -20 6 -20 6 0 11 -7 11 -15 0 -8 5 -15 10 -15 6 0 10 -7 10 -15
0 -9 9 -25 19 -37 11 -11 17 -26 14 -34 -3 -8 1 -14 10 -14 8 0 18 -7 21 -16
4 -10 2 -13 -7 -9 -6 4 -3 -1 7 -9 11 -9 16 -16 10 -16 -5 0 0 -7 10 -15 14
-11 16 -15 5 -15 -8 -1 -5 -5 8 -13 21 -12 23 -15 23 -37 0 -5 7 -10 16 -10
11 0 15 -6 11 -20 -3 -10 -2 -19 2 -18 27 3 33 -3 15 -17 -18 -13 -18 -14 6
-9 20 5 22 3 10 -5 -12 -8 -12 -11 -1 -11 8 0 11 -6 7 -16 -3 -8 -2 -13 2 -10
4 2 14 1 22 -5 11 -6 11 -9 2 -9 -10 0 -10 -3 0 -14 7 -8 16 -12 20 -10 3 2 4
-5 1 -16 -3 -12 1 -22 11 -26 9 -3 16 -12 16 -20 0 -8 5 -14 11 -14 6 0 8 -7
5 -16 -6 -15 -4 -15 10 -3 16 13 16 12 5 -10 -8 -15 -9 -21 -2 -17 6 4 11 3
11 -3 0 -5 -6 -12 -12 -15 -7 -3 -4 -4 7 -3 11 1 20 -4 21 -10 1 -7 2 -18 3
-24 0 -5 7 -7 14 -3 9 6 9 4 -1 -8 -11 -14 -10 -18 8 -28 12 -6 19 -14 16 -17
-9 -9 14 -44 24 -38 6 3 7 -1 4 -9 -4 -9 6 -26 23 -42 15 -15 22 -24 16 -20
-7 4 -13 2 -13 -3 0 -6 5 -11 11 -11 5 0 7 -6 3 -12 -5 -8 0 -7 11 2 10 8 16
10 12 3 -4 -6 -3 -14 2 -18 6 -3 7 -13 4 -22 -4 -11 -3 -14 6 -9 8 5 14 1 18
-13 3 -12 10 -18 17 -14 6 4 4 -2 -4 -13 -8 -10 -11 -16 -6 -12 11 9 36 -16
36 -36 0 -9 5 -16 11 -16 5 0 7 5 3 12 -4 7 -3 8 4 4 6 -4 8 -14 5 -23 -4 -10
-2 -14 5 -9 6 3 14 1 18 -5 4 -8 3 -9 -4 -5 -7 4 -12 2 -12 -3 0 -6 5 -11 11
-11 5 0 7 -4 4 -10 -3 -6 0 -10 8 -10 8 0 18 -7 21 -16 4 -10 2 -13 -7 -9 -6
4 -5 1 3 -7 8 -7 23 -26 33 -41 11 -17 23 -25 30 -20 7 4 5 -2 -3 -12 -8 -10
-10 -16 -4 -12 14 8 58 -38 49 -52 -3 -6 1 -11 10 -11 10 0 13 -5 9 -12 -5 -7
-2 -9 8 -5 12 4 14 1 10 -15 -3 -12 -1 -19 4 -16 5 3 17 -3 27 -14 11 -12 13
-18 5 -18 -7 -1 -3 -6 10 -13 12 -7 19 -16 16 -20 -4 -4 0 -7 10 -7 9 0 14 -5
11 -10 -3 -6 -1 -10 5 -10 6 0 8 -5 4 -12 -5 -7 -2 -9 9 -5 11 4 14 2 11 -7
-3 -7 3 -19 13 -27 17 -13 17 -13 3 6 -14 19 -14 19 3 6 9 -7 17 -20 17 -28 0
-8 5 -11 10 -8 6 3 10 -1 10 -9 0 -19 16 -21 24 -3 3 6 3 2 0 -10 -4 -17 -1
-23 10 -23 14 0 20 -11 17 -32 0 -4 6 -5 14 -2 10 4 15 0 15 -11 0 -9 5 -13
10 -10 6 3 10 -1 10 -9 0 -8 5 -18 12 -22 7 -4 8 -3 4 4 -5 8 -2 10 8 6 9 -3
13 -10 10 -15 -3 -5 2 -9 11 -9 9 0 13 -4 10 -10 -3 -5 1 -10 10 -10 10 0 13
-5 9 -12 -5 -8 -2 -9 11 -4 15 5 16 4 6 -8 -11 -13 -9 -15 9 -11 17 3 20 0 16
-12 -5 -13 -4 -14 9 -3 13 11 14 10 9 -6 -4 -10 -3 -16 1 -12 5 5 14 -1 22
-12 8 -11 18 -20 23 -20 6 0 23 -14 40 -31 16 -18 30 -28 30 -23 0 5 7 -2 16
-14 10 -14 22 -21 31 -18 11 5 13 2 9 -9 -3 -9 -2 -13 4 -10 6 3 10 1 10 -4 0
-6 7 -11 15 -11 8 0 15 -5 15 -11 0 -5 5 -7 10 -4 6 3 10 -1 10 -9 0 -14 19
-21 44 -17 5 1 3 -5 -4 -14 -11 -13 -10 -15 4 -9 12 5 19 0 23 -15 3 -12 13
-21 24 -21 10 0 21 -5 25 -12 5 -7 3 -8 -6 -3 -8 5 -11 4 -6 -3 4 -6 14 -8 23
-5 12 5 14 3 8 -7 -6 -10 -3 -12 13 -8 15 4 19 2 15 -9 -4 -9 5 -18 26 -26 17
-6 29 -17 27 -23 -3 -8 4 -11 20 -9 17 1 24 -2 20 -10 -3 -8 2 -16 10 -19 10
-4 12 -2 8 6 -4 7 -3 8 4 4 7 -4 12 -14 12 -23 0 -10 6 -14 20 -10 10 3 19 2
18 -2 -2 -19 3 -31 12 -26 6 3 10 1 10 -4 0 -6 7 -11 15 -11 7 0 18 -6 22 -13
4 -7 17 -13 28 -12 11 0 25 -11 31 -24 11 -21 13 -22 17 -5 5 18 5 18 6 0 1
-12 6 -16 17 -12 8 3 12 2 9 -4 -6 -9 8 -14 28 -11 4 0 7 -7 7 -16 0 -14 2
-15 9 -5 7 11 9 11 14 -2 4 -9 18 -16 32 -16 14 0 25 -5 25 -11 0 -5 4 -7 10
-4 5 3 7 0 4 -9 -4 -11 1 -14 20 -12 18 2 26 -2 26 -11 0 -10 6 -13 16 -9 8 3
12 2 9 -3 -3 -5 -1 -12 5 -16 5 -3 10 -1 10 6 0 8 9 4 23 -8 12 -11 29 -23 37
-27 8 -4 6 0 -5 10 -18 15 -18 16 -2 10 10 -3 21 -6 23 -6 2 0 4 -7 4 -16 0
-8 4 -13 8 -10 5 3 27 -6 50 -19 23 -13 42 -19 42 -14 0 6 5 7 10 4 6 -4 8
-11 5 -16 -3 -5 2 -6 11 -2 13 5 15 3 9 -8 -7 -11 -5 -11 10 1 11 9 16 10 11
3 -4 -8 -1 -13 8 -13 9 0 16 -4 16 -10 0 -5 12 -10 26 -10 16 0 23 -4 18 -11
-5 -8 1 -10 19 -7 18 3 24 1 20 -8 -3 -9 2 -11 16 -7 15 4 21 1 21 -11 0 -10
9 -16 23 -16 27 -1 59 -24 49 -36 -4 -4 2 -2 12 6 13 10 17 10 12 3 -5 -9 1
-13 18 -13 14 0 26 -5 26 -11 0 -5 4 -7 10 -4 6 3 10 1 10 -5 0 -6 5 -8 10 -5
6 3 10 0 10 -7 0 -9 3 -9 10 2 7 11 10 11 10 2 0 -8 5 -10 13 -6 7 5 6 0 -3
-11 -8 -10 -10 -16 -3 -12 6 4 14 1 16 -5 4 -10 6 -10 6 -1 1 7 8 10 16 7 8
-4 12 -10 9 -15 -3 -5 -2 -8 3 -7 4 1 19 -4 33 -11 13 -8 36 -14 50 -15 16 -1
24 -6 22 -15 -2 -8 3 -11 13 -8 8 4 15 2 15 -4 0 -6 5 -7 11 -4 6 4 17 -1 25
-11 9 -11 12 -12 8 -4 -6 12 -4 13 7 3 7 -7 21 -13 31 -13 9 0 22 -8 27 -17 8
-14 11 -15 11 -3 1 10 4 9 10 -5 5 -11 9 -14 9 -7 1 16 19 15 38 -3 8 -8 19
-13 24 -10 5 4 9 0 9 -7 0 -9 3 -9 10 2 6 10 10 11 10 3 0 -7 7 -13 16 -13 8
0 13 -4 10 -8 -3 -5 1 -9 9 -9 8 0 12 4 9 9 -3 4 0 8 5 8 6 0 11 -4 11 -10 0
-5 14 -10 31 -10 21 0 28 -4 23 -12 -5 -9 -2 -9 9 1 14 11 17 11 17 0 0 -11 2
-11 10 1 6 10 10 11 10 3 0 -7 5 -13 11 -13 5 0 7 6 4 13 -4 6 4 1 16 -13 15
-17 20 -19 16 -8 -7 20 9 25 16 6 3 -7 6 -8 6 -2 1 6 14 9 31 6 18 -3 28 -9
24 -16 -3 -6 4 0 15 14 12 14 20 19 19 11 -2 -7 3 -16 11 -19 10 -3 12 0 7 13
-5 14 -4 16 7 7 10 -9 17 -8 25 0 9 9 12 9 12 0 0 -6 7 -9 15 -6 8 4 13 10 10
14 -3 5 0 12 6 16 7 4 9 3 6 -2 -3 -6 -2 -16 4 -24 7 -13 9 -13 9 0 0 13 1 13
10 0 8 -13 10 -12 10 3 0 10 5 15 11 12 5 -4 20 1 31 12 12 10 18 12 14 5 -4
-6 -3 -12 3 -12 5 0 11 5 13 12 2 6 12 12 21 14 9 1 15 -1 12 -6 -3 -4 4 -6
15 -3 11 3 18 9 15 13 -6 9 25 23 33 15 3 -3 -1 -5 -8 -5 -7 0 -11 -2 -8 -5 9
-9 38 7 32 17 -4 6 4 4 17 -2 13 -7 21 -9 17 -5 -4 5 -3 14 3 22 9 10 15 11
26 1 11 -9 15 -7 20 10 5 20 15 26 36 23 4 0 7 3 7 9 0 5 7 10 15 10 8 0 15 5
15 10 0 6 5 10 11 10 6 0 22 9 36 20 14 11 21 20 16 20 -6 0 -16 -7 -23 -15
-7 -8 -17 -15 -23 -15 -5 0 2 9 16 20 14 11 32 20 41 20 9 0 16 6 16 14 0 7 8
20 18 27 16 13 16 12 3 -6 -9 -13 -5 -11 11 5 14 14 23 28 21 33 -2 4 3 7 12
7 9 0 13 5 10 10 -3 6 0 10 8 10 16 0 58 46 50 54 -4 3 1 6 11 6 9 0 14 4 11
10 -3 5 -1 10 4 10 6 0 11 7 11 16 0 8 4 13 9 9 5 -3 12 4 16 15 4 11 11 17
17 14 7 -5 8 -2 3 6 -5 9 2 22 21 38 16 13 22 21 14 16 -8 -4 0 7 18 25 17 18
32 37 32 43 0 14 36 58 42 52 3 -3 8 2 12 11 4 11 2 14 -7 10 -6 -4 -5 -1 4 7
9 7 14 20 11 28 -4 12 -2 13 9 3 12 -10 15 -9 16 5 2 29 9 51 18 59 4 4 5 1 0
-7 -5 -10 -5 -12 3 -5 5 6 12 19 14 30 2 11 10 19 18 17 11 -3 11 0 0 12 -10
13 -10 16 0 16 8 0 10 8 7 21 -4 15 -2 18 7 10 8 -7 15 -4 24 9 7 12 8 21 2
25 -6 4 -4 12 5 21 8 9 15 22 15 30 0 8 5 12 10 9 6 -3 10 2 10 12 0 11 5 24
10 29 6 6 12 24 13 41 1 17 4 30 7 28 3 -2 11 3 18 11 8 9 9 14 2 14 -6 0 -8
5 -5 10 4 6 12 7 18 4 7 -4 9 -4 5 1 -4 4 -2 15 5 23 10 13 9 14 -2 7 -10 -5
-12 -4 -7 3 4 7 14 12 22 12 8 0 14 5 14 11 0 5 -4 8 -8 5 -5 -3 -9 1 -9 9 0
8 5 11 10 8 6 -4 8 3 4 16 -5 19 -3 20 11 9 10 -8 13 -9 9 -1 -4 6 -3 14 3 18
5 3 10 12 10 18 0 7 -4 6 -10 -3 -6 -9 -10 -10 -10 -3 0 7 6 16 14 20 8 4 16
17 18 28 1 11 10 26 18 33 8 8 9 11 3 7 -7 -3 -13 -1 -13 4 0 6 8 11 18 12 9
0 12 3 5 6 -10 3 -10 7 0 18 7 7 16 10 21 7 5 -3 6 0 2 7 -4 6 -1 24 7 40 11
22 12 32 3 41 -6 6 -7 11 -1 10 24 -5 34 1 28 17 -5 12 -3 14 7 8 10 -6 12 -4
7 9 -5 13 -3 17 7 13 9 -4 12 0 9 12 -2 9 5 25 16 35 15 14 18 22 10 32 -8 9
-5 15 10 24 12 6 21 16 21 23 0 7 -4 6 -10 -3 -6 -9 -10 -10 -10 -3 0 7 8 17
18 22 9 6 13 11 7 11 -5 0 1 10 15 21 21 17 22 20 5 15 -20 -6 -20 -6 -1 9 11
8 16 15 11 15 -5 0 0 6 10 14 10 7 20 22 21 32 2 10 7 20 13 22 5 2 7 10 4 18
-3 8 0 14 6 14 6 0 11 7 11 16 0 8 4 12 10 9 6 -4 7 1 3 11 -5 13 -3 15 8 9 8
-4 11 -5 7 0 -4 4 -2 15 5 23 10 13 9 14 -2 7 -10 -5 -12 -4 -7 3 4 7 15 12
24 13 11 0 12 3 5 6 -7 2 -13 9 -13 14 0 6 4 8 9 5 5 -3 11 3 14 14 3 13 1 18
-6 13 -7 -3 -4 2 5 13 14 16 15 23 5 33 -9 10 -8 11 8 5 17 -7 18 -6 7 8 -11
14 -10 18 5 27 10 6 14 11 9 11 -6 0 -1 7 10 16 10 8 13 13 7 9 -15 -7 -18 11
-3 20 6 4 7 11 4 17 -4 6 0 14 7 19 12 7 12 9 0 9 -11 0 -9 4 5 15 13 10 14
14 5 15 -11 0 -11 3 -1 15 6 8 9 19 5 25 -3 5 -1 10 5 10 6 0 8 5 5 10 -4 6
-1 18 7 27 11 14 11 16 -2 8 -13 -7 -13 -6 -2 7 10 13 10 17 0 21 -10 4 -10 6
1 6 11 1 11 4 1 16 -11 13 -10 14 1 10 10 -4 15 1 15 14 0 11 -3 18 -7 15 -14
-8 -2 28 12 37 12 8 12 10 0 18 -12 8 -12 12 -2 25 11 12 11 16 1 16 -10 0
-10 3 0 15 10 12 10 15 -1 15 -9 0 -10 3 -3 8 19 13 23 62 5 72 -14 8 -14 9 1
10 10 0 15 6 13 13 -3 6 -6 29 -8 50 -4 31 -1 37 11 32 12 -4 13 -3 2 10 -13
16 -21 107 -8 99 7 -5 1 20 -11 41 -10 18 -8 45 3 45 6 0 4 5 -4 10 -12 8 -12
10 -1 10 9 0 5 8 -10 22 -17 14 -19 19 -6 15 19 -7 24 9 5 16 -9 4 -9 6 1 6
11 1 10 5 -5 16 -14 11 -15 14 -4 15 13 0 13 1 0 10 -13 9 -13 10 0 10 11 0
12 2 3 8 -7 4 -13 22 -15 40 -1 18 -6 32 -11 32 -5 0 -3 8 4 17 12 14 12 16 0
8 -11 -6 -13 -3 -9 13 4 12 3 20 -2 17 -4 -3 -11 2 -14 11 -3 8 -2 12 4 9 6
-3 10 -2 10 4 0 5 -5 11 -12 13 -15 5 -19 38 -5 39 7 0 1 5 -12 10 -20 8 -22
11 -10 26 12 15 12 16 -5 9 -19 -7 -19 -6 -2 13 18 20 18 20 -4 16 -17 -3 -20
-2 -10 10 7 9 8 15 0 20 -5 3 -10 1 -10 -6 0 -7 -3 -9 -6 -6 -4 4 -1 13 6 22
8 9 8 15 2 15 -6 0 -9 9 -7 20 2 11 -1 23 -7 26 -7 5 -8 2 -3 -7 5 -8 4 -10 0
-6 -5 4 -10 15 -11 25 -2 9 -8 18 -14 20 -7 3 -7 9 2 20 11 13 11 14 -1 7 -11
-6 -13 -4 -8 8 4 12 2 14 -11 10 -9 -3 -14 -3 -10 2 4 4 3 16 -3 26 -7 14 -6
19 3 19 9 0 9 3 -2 9 -8 6 -18 7 -23 4 -5 -3 -4 4 2 15 9 17 7 25 -11 43 -13
12 -16 19 -8 15 13 -7 13 -6 0 6 -8 7 -15 20 -15 28 0 8 -5 14 -12 13 -7 -2
-10 4 -7 12 4 8 11 12 18 8 6 -4 5 1 -3 10 -7 9 -17 14 -22 11 -5 -3 -6 2 -3
10 3 9 1 16 -5 16 -6 0 -8 7 -5 15 4 9 0 15 -7 15 -11 0 -11 3 1 10 13 8 12
10 -4 10 -11 0 -16 3 -13 7 4 3 1 13 -5 21 -15 17 -20 44 -7 36 5 -3 9 -1 9 5
0 5 -6 12 -12 14 -8 3 -5 6 5 6 10 1 15 6 12 11 -6 9 8 14 28 11 4 0 7 7 7 17
0 9 4 13 8 7 12 -17 32 -16 25 2 -5 12 -3 14 7 8 8 -5 11 -3 8 6 -5 16 37 53
51 45 5 -4 12 3 16 14 4 11 10 18 15 15 11 -7 32 30 22 39 -3 4 2 4 13 0 14
-6 17 -4 12 8 -3 10 0 19 8 22 9 3 12 12 8 22 -4 11 -2 15 4 11 6 -4 8 3 5 18
-2 14 -9 25 -14 25 -6 0 -5 7 2 15 10 12 10 15 0 15 -9 0 -9 4 1 17 11 13 11
17 2 20 -7 3 -13 9 -13 14 0 6 5 7 10 4 6 -3 10 1 10 10 0 9 4 14 8 11 4 -3
13 8 19 25 6 16 8 27 3 24 -4 -3 -6 4 -3 15 3 11 10 17 15 14 7 -5 7 0 0 12
-8 14 -6 21 6 32 10 7 12 11 6 8 -8 -4 -10 11 -8 51 2 30 6 58 9 61 2 3 -1 12
-8 20 -9 13 -9 14 1 8 6 -4 12 -2 12 3 0 6 -6 11 -12 11 -9 0 -8 4 2 10 10 6
11 10 3 10 -7 0 -13 5 -13 11 0 5 4 8 8 5 5 -3 9 1 9 9 0 8 -4 12 -9 9 -4 -3
-8 15 -8 40 0 25 -5 46 -10 46 -6 0 -10 6 -8 13 1 6 -6 27 -15 45 -13 24 -14
32 -5 32 10 0 10 2 -1 9 -7 5 -10 14 -7 20 4 6 4 11 -1 11 -4 0 -9 11 -9 24
-1 18 2 23 15 20 12 -4 12 -3 -2 6 -17 11 -17 13 -2 30 11 12 13 20 5 25 -5 3
-8 11 -5 16 4 5 1 9 -6 9 -8 0 -8 4 1 16 8 8 9 14 4 12 -5 -2 -20 5 -34 15
-13 9 -19 17 -13 17 7 0 15 -4 18 -10 3 -5 12 -10 18 -10 7 0 4 5 -5 11 -10 5
-18 16 -18 24 0 7 -9 17 -20 20 -11 4 -18 11 -15 16 4 5 -1 9 -10 9 -9 0 -13
4 -10 10 3 6 -1 10 -11 10 -14 0 -15 2 -3 18 7 9 9 14 5 10 -5 -4 -15 0 -23
10 -9 10 -12 11 -7 2 6 -11 2 -10 -13 3 -11 9 -23 14 -27 10 -4 -4 -4 0 0 10
4 12 1 17 -10 17 -9 0 -16 7 -16 16 0 8 -4 13 -9 10 -16 -10 -19 19 -6 57 9
28 10 35 1 28 -8 -7 -12 -4 -13 10 -1 11 3 17 8 13 6 -3 8 5 5 20 -2 14 1 27
7 30 8 3 7 8 -3 15 -13 10 -13 11 0 11 13 0 13 1 0 10 -13 9 -13 11 0 20 13 9
13 11 1 19 -12 8 -12 12 -2 25 11 13 11 16 0 16 -11 0 -11 2 1 10 13 9 13 10
0 10 -13 0 -13 1 0 10 13 9 13 10 0 10 -13 0 -13 1 0 10 13 9 13 10 0 10 -13
0 -13 1 0 10 13 9 13 10 0 10 -13 0 -13 1 0 10 12 7 12 10 1 10 -7 0 -11 6 -8
14 3 8 1 17 -6 20 -7 2 -4 5 6 5 10 1 15 6 12 11 -4 6 -10 8 -15 5 -5 -3 -12
0 -16 6 -4 8 -3 9 4 5 21 -13 13 3 -18 35 -16 18 -27 36 -23 42 3 6 1 7 -6 3
-6 -4 -9 -13 -5 -19 3 -7 -1 -4 -9 6 -16 19 -32 24 -21 5 4 -7 3 -8 -5 -4 -6
4 -9 12 -6 17 4 5 0 9 -7 9 -9 0 -9 3 2 10 8 5 10 10 4 10 -7 0 -14 7 -17 14
-4 10 -1 13 9 9 7 -3 14 0 14 6 0 6 -4 11 -10 11 -5 0 -6 7 -3 17 4 9 2 14 -3
10 -7 -4 -9 6 -6 25 4 24 2 29 -9 23 -12 -8 -12 -6 0 8 11 14 11 17 0 17 -12
0 -12 2 0 9 8 5 9 10 3 12 -6 2 -12 21 -14 41 -2 31 -4 35 -17 25 -12 -10 -13
-9 -2 11 7 14 8 22 1 22 -5 0 -10 5 -10 11 0 5 5 7 10 4 16 -10 12 0 -10 25
-11 12 -17 26 -15 31 3 4 -2 9 -11 11 -13 2 -12 7 6 26 16 17 25 20 39 12 15
-8 22 -5 36 16 12 19 20 23 29 15 14 -12 76 13 76 30 0 5 3 8 8 8 18 -3 32 2
32 12 0 5 -5 7 -12 3 -7 -4 -8 -3 -4 4 4 6 14 8 23 5 11 -4 14 -3 9 5 -4 7 3
17 18 24 24 10 30 20 27 40 0 4 6 5 14 2 10 -4 15 0 15 10 0 9 7 19 15 22 8 4
12 10 9 15 -3 5 2 9 12 9 14 0 14 3 4 15 -11 13 -10 14 5 8 15 -5 17 -3 12 11
-4 10 -3 15 3 11 6 -3 10 -1 10 5 0 6 4 9 9 6 5 -4 7 4 3 16 -3 13 -1 19 6 15
6 -5 9 2 7 18 -1 14 2 25 6 25 5 0 7 18 5 40 -2 26 0 40 8 40 6 0 4 5 -4 10
-13 9 -13 10 0 10 13 0 13 1 0 10 -13 9 -13 10 0 10 13 0 13 1 0 10 -13 9 -13
10 0 10 13 0 13 1 0 10 -13 9 -13 10 0 10 13 0 13 1 0 10 -8 5 -11 10 -6 10 5
0 1 9 -9 20 -18 20 -18 21 1 14 17 -7 17 -6 6 9 -8 9 -10 22 -6 28 4 8 3 9 -4
5 -8 -5 -12 1 -12 14 0 14 -4 19 -12 14 -10 -6 -10 -5 0 8 10 13 9 18 -5 29
-17 13 -17 13 -3 -6 14 -19 14 -19 -3 -6 -14 11 -15 16 -5 29 10 13 10 14 1 8
-8 -4 -13 -2 -13 4 0 6 -4 9 -9 5 -5 -3 -12 -1 -16 5 -3 5 -1 10 5 10 6 0 8 5
5 10 -4 6 -11 7 -17 4 -7 -5 -9 -1 -5 9 4 11 2 14 -9 10 -7 -3 -14 0 -14 7 0
6 -5 8 -12 4 -9 -5 -8 -2 1 9 12 15 12 17 -4 11 -14 -6 -16 -4 -10 6 6 10 3
12 -14 7 -19 -5 -21 -3 -9 11 7 9 8 14 4 10 -5 -4 -15 0 -23 10 -8 9 -11 11
-7 3 4 -9 2 -12 -7 -9 -8 3 -13 10 -12 16 1 5 -7 8 -19 4 -14 -3 -19 -1 -14 6
7 11 -11 17 -41 13 -7 -1 -13 3 -13 9 0 7 -17 10 -44 8 -30 -2 -42 -7 -39 -16
4 -9 -1 -10 -18 -4 -30 10 -38 9 -66 -6 -18 -10 -23 -10 -23 0 0 6 -7 3 -16
-8 -8 -10 -13 -14 -10 -7 4 6 2 14 -4 18 -5 3 -10 -1 -10 -9 0 -8 -5 -18 -12
-22 -7 -4 -8 -3 -4 4 4 7 2 12 -3 12 -6 0 -11 -10 -11 -21 0 -19 -2 -20 -17
-8 -9 8 -14 9 -10 3 8 -14 -16 -36 -34 -32 -8 2 -13 -5 -13 -14 1 -10 -2 -15
-7 -12 -5 3 -9 0 -9 -6 0 -6 -4 -8 -10 -5 -5 3 -10 1 -10 -5 0 -7 -7 -10 -15
-7 -8 4 -17 2 -20 -4 -8 -12 -28 8 -45 48 -8 17 -18 29 -24 26 -5 -3 -6 -1 -2
6 6 9 11 9 21 1 9 -8 12 -5 10 14 -2 14 -6 30 -11 37 -4 7 -3 10 3 6 6 -4 13
2 16 13 3 11 2 18 -2 15 -4 -2 -8 2 -8 10 0 8 4 12 9 9 4 -3 8 1 9 8 0 7 2 21
4 31 2 9 0 15 -4 12 -4 -2 -8 2 -8 10 0 8 4 12 9 9 4 -3 8 0 8 5 0 6 -5 11
-11 11 -8 0 -8 5 1 15 7 8 8 15 3 15 -10 0 -10 41 1 58 4 7 2 12 -6 12 -9 0
-9 3 2 10 12 8 12 10 1 10 -11 0 -11 3 0 16 10 13 10 17 0 23 -10 7 -10 13 -2
29 8 15 8 23 -1 28 -6 4 -8 3 -5 -3 3 -5 0 -10 -7 -10 -11 0 -11 5 0 25 13 25
9 52 -7 52 -5 0 -9 7 -9 16 0 9 5 13 13 9 6 -4 3 1 -7 9 -11 9 -16 16 -12 16
5 0 2 8 -5 17 -12 14 -12 15 -1 9 11 -7 12 -4 3 13 -7 11 -9 21 -5 21 3 0 -1
11 -10 25 -9 13 -16 32 -16 41 0 10 -5 14 -16 10 -9 -3 -12 -2 -9 5 4 5 1 17
-7 26 -9 12 -9 15 0 9 20 -12 14 4 -10 26 -13 11 -17 17 -10 13 6 -3 12 -1 12
4 0 6 -7 11 -15 11 -9 0 -12 6 -9 15 4 8 -1 17 -10 21 -9 3 -14 10 -11 14 3 5
-4 15 -15 23 -11 7 -17 17 -13 20 3 4 -1 7 -10 7 -10 0 -17 8 -17 21 0 11 -4
18 -9 15 -5 -3 -12 6 -16 21 -5 22 -8 24 -17 12 -8 -11 -9 -10 -5 6 2 11 -3
27 -11 35 -14 13 -15 12 -9 -3 4 -11 3 -16 -3 -12 -6 3 -10 15 -10 26 0 10 -5
19 -11 19 -5 0 -7 5 -4 10 3 6 -1 10 -9 10 -8 0 -17 8 -21 19 -9 28 -41 62
-51 53 -4 -4 -2 1 5 11 12 15 11 17 -4 17 -10 0 -15 3 -12 7 4 3 -3 11 -16 17
-12 7 -22 19 -22 27 0 21 -24 49 -41 49 -8 0 -14 9 -14 20 0 11 -5 20 -11 20
-5 0 -7 4 -4 10 3 6 -1 7 -9 4 -12 -4 -16 0 -16 16 0 14 -4 19 -12 14 -8 -5
-9 -2 -5 9 3 9 1 19 -5 23 -7 5 -8 2 -3 -6 5 -9 4 -11 -3 -6 -7 4 -12 14 -12
22 0 8 -4 14 -10 14 -5 0 -10 7 -10 15 0 8 -9 19 -21 25 -17 9 -18 14 -8 26
10 12 10 15 -2 12 -8 -2 -14 4 -14 12 0 8 -7 21 -15 28 -8 8 -9 11 -2 7 6 -3
12 -1 12 4 0 6 -8 11 -17 11 -11 0 -14 3 -8 8 13 9 13 38 0 35 -6 -1 -9 16 -9
38 1 23 -3 39 -10 39 -6 0 -4 5 4 10 8 5 10 10 3 10 -12 0 -11 13 2 43 4 9 5
28 3 42 -3 13 -2 24 1 23 19 -2 24 4 11 12 -13 9 -13 10 0 10 13 0 13 1 0 10
-13 8 -12 10 4 10 15 0 16 3 7 14 -8 10 -9 16 -1 21 6 3 7 12 3 18 -4 7 1 6
10 -2 15 -12 17 -12 11 3 -6 16 0 36 28 90 6 12 6 16 0 12 -12 -7 -10 20 3 31
4 4 5 2 1 -4 -4 -7 -2 -13 5 -13 6 0 9 8 6 20 -3 11 -1 20 5 20 5 0 6 5 3 10
-3 6 -1 10 6 10 8 0 9 3 0 13 -6 8 -8 17 -4 20 3 4 0 7 -8 7 -11 0 -11 2 1 10
12 8 10 10 -8 10 -14 0 -21 4 -16 11 4 7 -1 7 -16 -1 -12 -7 -20 -8 -16 -2 3
5 -1 15 -9 22 -13 11 -15 10 -9 -6 5 -18 5 -18 -10 0 -9 11 -16 16 -16 12 0
-5 -6 -4 -12 1 -7 5 -25 8 -41 7 -19 -2 -25 1 -21 9 4 7 4 9 -1 5 -4 -4 -15
-2 -24 5 -14 11 -15 10 -1 -7 14 -18 13 -19 -3 -13 -10 4 -21 7 -23 7 -3 0 -3
3 -1 8 3 4 -6 7 -19 7 -13 0 -24 -4 -24 -8 0 -5 -5 -5 -10 -2 -6 4 -8 11 -5
16 3 5 -1 6 -9 3 -9 -3 -13 -10 -10 -15 3 -5 -2 -6 -10 -3 -9 3 -16 10 -16 15
0 11 -23 7 -32 -6 -5 -7 -8 -6 -8 0 0 9 -21 15 -67 18 -7 0 -13 5 -13 11 0 6
-5 4 -10 -4 -8 -12 -10 -12 -10 -1 0 11 -3 11 -15 1 -12 -10 -15 -10 -15 1 0
12 -2 12 -9 0 -7 -11 -9 -11 -14 0 -5 12 -6 12 -6 0 -1 -11 -4 -11 -18 0 -11
10 -14 10 -9 2 4 -8 2 -13 -4 -13 -7 0 -10 -7 -6 -15 5 -13 2 -14 -15 -4 -19
10 -20 9 -9 -10 7 -15 7 -21 0 -21 -7 0 -7 -7 1 -22 11 -20 10 -21 -3 -11 -12
10 -15 10 -15 0 -1 -22 -8 -42 -18 -49 -6 -5 -5 -8 4 -8 11 0 11 -3 1 -15 -6
-8 -8 -20 -4 -26 4 -7 3 -9 -3 -6 -6 4 -14 -1 -17 -10 -4 -9 -1 -20 6 -25 9
-5 7 -8 -7 -8 -17 0 -17 -2 -5 -10 11 -7 11 -10 2 -10 -7 0 -12 -8 -10 -17 2
-10 -2 -17 -8 -16 -6 1 -11 -4 -11 -12 0 -8 4 -12 9 -9 4 3 8 1 8 -4 0 -6 -7
-12 -15 -16 -8 -3 -15 -9 -14 -13 3 -20 -2 -27 -12 -13 -9 12 -10 11 -6 -7 4
-16 1 -20 -11 -16 -10 4 -13 2 -8 -5 4 -7 -1 -9 -16 -6 -13 3 -29 6 -35 6 -7
1 -13 5 -13 10 0 5 -4 6 -10 3 -6 -3 -7 1 -4 9 4 9 1 16 -6 16 -7 0 -10 7 -6
16 3 8 2 13 -2 10 -4 -2 -14 -1 -22 5 -12 7 -11 9 5 9 18 1 18 3 -6 23 -15 12
-32 33 -38 47 -11 24 -11 24 3 6 9 -11 16 -15 16 -8 0 6 -9 17 -20 25 -11 8
-17 17 -13 20 3 4 1 7 -6 7 -8 0 -11 8 -8 20 3 12 0 20 -7 20 -6 0 -12 10 -13
22 -1 11 -6 24 -10 27 -4 3 -10 15 -11 26 -2 11 -8 22 -13 23 -5 2 -7 8 -3 13
3 5 -3 9 -13 9 -15 0 -16 2 -3 10 13 8 12 10 -3 10 -10 0 -16 4 -13 9 3 5 -1
11 -8 14 -9 4 -17 -1 -19 -11 -4 -16 -5 -16 -6 0 -1 14 -6 15 -31 8 -20 -6
-30 -5 -30 2 0 7 -5 6 -14 -1 -11 -9 -16 -9 -22 0 -4 8 -3 9 4 5 17 -10 15 3
-3 20 -9 9 -15 11 -15 4z m1271 -1017 c13 -16 12 -17 -3 -4 -10 7 -18 15 -18
17 0 8 8 3 21 -13z m393 -589 c3 -8 2 -12 -4 -9 -6 3 -10 10 -10 16 0 14 7 11
14 -7z m366 -550 c0 -8 -19 -13 -24 -6 -3 5 1 9 9 9 8 0 15 -2 15 -3z m-265
-134 c3 -5 1 -10 -4 -10 -6 0 -11 5 -11 10 0 6 2 10 4 10 3 0 8 -4 11 -10z
m-4803 -1727 c-6 -2 -9 -10 -6 -15 4 -7 2 -8 -5 -4 -13 9 -5 26 12 25 9 0 8
-2 -1 -6z m896 -3068 c-3 -3 -9 2 -12 12 -6 14 -5 15 5 6 7 -7 10 -15 7 -18z
m4362 -449 c0 -3 -4 -8 -10 -11 -5 -3 -10 -1 -10 4 0 6 5 11 10 11 6 0 10 -2
10 -4z"/>
<path d="M4620 8300 c-9 -6 -10 -10 -3 -10 6 0 15 5 18 10 8 12 4 12 -15 0z"/>
<path d="M7185 6530 c-3 -5 -1 -10 4 -10 6 0 11 5 11 10 0 6 -2 10 -4 10 -3 0
-8 -4 -11 -10z"/>
<path d="M2146 5833 c-6 -14 -5 -15 5 -6 7 7 10 15 7 18 -3 3 -9 -2 -12 -12z"/>
<path d="M7380 4345 c-7 -9 -8 -15 -2 -15 5 0 12 7 16 15 3 8 4 15 2 15 -2 0
-9 -7 -16 -15z"/>
<path d="M3180 2020 c0 -5 5 -10 11 -10 5 0 7 5 4 10 -3 6 -8 10 -11 10 -2 0
-4 -4 -4 -10z"/>
<path d="M6785 1010 c-3 -6 1 -7 9 -4 18 7 21 14 7 14 -6 0 -13 -4 -16 -10z"/>
</g>
</svg>
